<?xml version="1.0" encoding="utf-8"?>
<!-- Generator: Adobe Illustrator 19.0.0, SVG Export Plug-In . SVG Version: 6.00 Build 0)  -->
<svg version="1.1" id="Layer_1" xmlns="http://www.w3.org/2000/svg" xmlns:xlink="http://www.w3.org/1999/xlink" x="0px" y="0px"
	 viewBox="-393 31 500 500" style="enable-background:new -393 31 500 500;" xml:space="preserve">
<style type="text/css">
	.st0{fill:#2196F3;}
	.st1{fill:#FFFFFF;}
	.st2{fill:#1975D1;}
	.st3{fill:#0054B9;}
	.st4{fill:#BBDEFB;}
</style>
<g id="XMLID_21_">
	<path id="XMLID_26_" class="st0" d="M-93,98.5L-253,99c-15.5,0-31,12-31,27.5V436c0,15.5,15.5,28,31,28h221.9
		C-15.6,464-4,451.4-4,436V272.2V187L-93,98.5"/>
	<rect id="XMLID_27_" x="-220.9" y="271.3" class="st1" width="158.1" height="19.4"/>
	<rect id="XMLID_28_" x="-220.9" y="306.8" class="st1" width="158.1" height="19.4"/>
	<rect id="XMLID_30_" x="-220.9" y="340.9" class="st1" width="158.1" height="19.4"/>
	<rect id="XMLID_31_" x="-220.9" y="375.5" class="st1" width="86.2" height="19.4"/>
	<polyline id="XMLID_32_" class="st2" points="-4,190 -90.2,190 -4,272.2 -4,190 	"/>
	<polygon id="XMLID_34_" class="st3" points="-93,187 -90.2,190 -4,190 -4,187 	"/>
	<polygon id="XMLID_37_" class="st4" points="-4,187 -93,98.5 -93,187 	"/>
</g>
</svg>
